# Blender 3.4.1
# www.blender.org
mtllib Fish.mtl
o Cylindre
v -1.268355 0.184626 -0.092575
v -0.709780 0.184626 -0.190553
v -1.268355 0.042438 -0.065461
v -0.709780 -0.028775 -0.134741
v -1.268355 -0.016459 -0.000000
v -0.709780 -0.222185 -0.000000
v -1.268355 0.042438 0.065461
v -0.709780 -0.049875 0.134741
v -1.268355 0.184626 0.092575
v -0.709780 0.184626 0.190553
v -1.268355 0.326814 0.065461
v -0.709780 0.379565 0.134741
v -1.268355 0.385711 -0.000000
v -0.709780 0.501761 -0.000000
v -1.268355 0.326814 -0.065461
v -0.709780 0.387477 -0.134741
v -0.145352 0.184626 -0.190553
v -0.145352 -0.105263 -0.134741
v -0.145352 -0.377798 -0.000000
v -0.145352 -0.135595 0.134741
v -0.145352 0.184626 0.190553
v -0.145352 0.441107 0.134741
v -0.145352 0.641550 -0.000000
v -0.145352 0.445503 -0.134741
v 0.434901 0.184626 -0.190553
v 0.434901 -0.136913 -0.134741
v 0.434901 -0.417361 -0.000000
v 0.434901 -0.190543 0.134741
v 0.434901 0.184626 0.190553
v 0.434901 0.482868 0.134741
v 0.434901 0.704850 -0.000000
v 0.434901 0.485065 -0.134741
v 1.015154 0.184626 -0.190553
v 1.015154 -0.107901 -0.134741
v 1.015154 -0.364611 -0.000000
v 1.015154 -0.120209 0.134741
v 1.015154 0.184626 0.190553
v 1.015154 0.438909 0.134741
v 1.015154 0.646825 -0.000000
v 1.015154 0.442865 -0.134741
v 1.521557 0.184626 -0.190553
v 1.521557 -0.047238 -0.134741
v 1.521557 -0.245922 -0.000000
v 1.521557 -0.045480 0.134741
v 1.521557 0.184626 0.190553
v 1.521557 0.364179 0.134741
v 1.521557 0.538687 -0.000000
v 1.521557 0.371652 -0.134741
v 2.009497 0.184626 -0.112240
v 2.009497 0.062659 -0.079366
v 2.009497 -0.052505 -0.000000
v 2.009497 0.073209 0.079366
v 2.009497 0.184626 0.112240
v 2.009497 0.263075 0.079366
v 2.009497 0.343071 -0.000000
v 2.009497 0.248568 -0.079366
v 2.271051 0.181425 -0.006039
v 2.271051 0.174066 -0.004270
v 2.271051 0.161417 -0.000000
v 2.271051 0.175297 0.004270
v 2.271051 0.181425 0.006039
v 2.271051 0.185848 0.004270
v 2.271051 0.190141 -0.000000
v 2.271051 0.184365 -0.004270
v -1.389547 0.183365 -0.070791
v -1.389547 0.070467 -0.050057
v -1.389547 -0.002281 -0.000000
v -1.389547 0.061720 0.050057
v -1.389547 0.183365 0.070791
v -1.389547 0.302180 0.050057
v -1.389547 0.386763 -0.000000
v -1.389547 0.302180 -0.050057
v -1.762048 0.183365 -0.070791
v -1.803899 0.070467 -0.050057
v -2.301688 -0.531615 -0.000000
v -1.803899 0.061720 0.050057
v -1.762048 0.183365 0.070791
v -1.893748 0.302180 0.050057
v -2.360299 0.659673 -0.000000
v -1.893748 0.302180 -0.050057
v -2.085788 0.135803 0.002460
v -0.187663 0.277429 -0.019226
v -0.187663 1.076281 -0.019226
v -0.187663 0.277429 0.019226
v -0.187663 1.076281 0.019226
v 0.543710 0.277429 -0.019226
v 0.543710 0.668496 -0.019226
v 0.543710 0.277429 0.019226
v 0.543710 0.668496 0.019226
v -0.267421 -0.025946 -0.019227
v -0.267421 -0.610508 -0.019227
v -0.267421 -0.025946 0.019226
v -0.267421 -0.610508 0.019226
v 0.463951 -0.025946 -0.019227
v 0.463951 -0.312110 -0.019227
v 0.463951 -0.025946 0.019226
v 0.463951 -0.312110 0.019226
v -1.099188 0.300684 -0.019226
v -1.099188 -0.283878 -0.019226
v -1.099188 0.300684 0.019226
v -1.099188 -0.283878 0.019226
v -0.367816 0.300684 -0.019226
v -0.367816 0.014520 -0.019226
v -0.367816 0.300684 0.019226
v -0.367816 0.014520 0.019226
vn -0.1583 -0.2243 -0.9616
vn -0.1986 -0.6092 -0.7677
vn -0.2163 -0.6391 0.7381
vn -0.1618 -0.2122 0.9637
vn -0.1548 0.2360 0.9594
vn -0.1519 0.7330 0.6630
vn -0.1136 0.6369 0.7625
vn -0.1582 0.7468 -0.6460
vn -0.1563 0.2308 -0.9604
vn -0.1605 -0.6510 -0.7419
vn -0.0071 0.1973 0.9803
vn -0.0150 -0.1972 0.9802
vn -0.1141 0.6514 -0.7501
vn -0.1024 -0.4980 -0.8611
vn -0.0131 0.2400 0.9707
vn -0.0120 0.2340 -0.9722
vn -0.0147 -0.2165 -0.9762
vn -0.1157 -0.5414 0.8328
vn 0.0463 0.5361 -0.8429
vn -0.0405 -0.4978 0.8664
vn -0.0049 -0.1796 -0.9837
vn -0.0066 0.1950 -0.9808
vn -0.0486 0.5372 0.8421
vn -0.0075 -0.1585 0.9873
vn -0.0269 -0.4379 -0.8986
vn -0.0481 0.5432 -0.8382
vn 0.0151 -0.2042 0.9788
vn 0.0075 0.1980 0.9802
vn 0.0526 -0.4957 0.8669
vn 0.0045 -0.1788 -0.9839
vn 0.0071 0.1959 -0.9806
vn 0.0466 0.5305 0.8464
vn 0.0098 -0.1620 0.9867
vn 0.0316 -0.4482 -0.8934
vn 0.1687 0.3284 -0.9293
vn 0.0898 -0.5072 -0.8571
vn 0.1035 0.5845 -0.8047
vn 0.0184 0.2491 0.9683
vn 0.0985 -0.5156 0.8511
vn 0.0125 -0.2082 -0.9780
vn 0.0171 0.2431 -0.9698
vn 0.1034 0.5729 0.8130
vn 0.3544 0.3607 0.8627
vn 0.2326 0.6261 0.7442
vn 0.1610 -0.2481 0.9553
vn 0.2168 -0.5502 -0.8064
vn 0.2432 0.6144 -0.7505
vn 0.1611 0.3208 0.9333
vn 0.2176 -0.5356 0.8159
vn 0.1582 -0.2401 -0.9578
vn -0.9922 -0.1208 0.0307
vn 0.3978 -0.4715 0.7870
vn 0.3620 -0.2412 -0.9004
vn 0.3445 0.4318 -0.8336
vn 0.3808 0.6513 0.6564
vn 0.3600 -0.2637 0.8949
vn 0.4184 -0.4973 -0.7600
vn 0.3520 0.5995 -0.7188
vn -0.0000 0.1719 -0.9851
vn -0.1678 0.1778 0.9697
vn -0.1678 0.1778 -0.9697
vn -0.1687 -0.1817 -0.9688
vn -0.1395 -0.6782 0.7215
vn -0.1098 0.6233 0.7742
vn -0.1621 -0.1761 0.9709
vn -0.1098 0.6233 -0.7742
vn 1.0000 -0.0000 -0.0000
vn 0.0501 0.2706 0.9614
vn -0.0000 -0.1680 0.9858
vn 0.0818 -0.2051 -0.9753
vn 0.0501 0.2706 -0.9614
vn -0.0000 0.1719 0.9851
vn 0.0848 -0.2125 0.9735
vn -0.0000 -0.1806 -0.9836
vn -0.7672 0.6390 0.0558
vn -0.6082 -0.7938 -0.0000
vn -0.2399 -0.9671 -0.0845
vn -0.1913 -0.1006 0.9764
vn -0.1992 -0.0500 0.9787
vn -0.6548 0.7558 -0.0000
vn -0.2113 -0.0640 -0.9753
vn -0.2051 -0.1027 -0.9733
vn -0.0000 -0.0000 -1.0000
vn -1.0000 -0.0000 -0.0000
vn -0.0000 -0.0000 1.0000
vn -0.0000 1.0000 -0.0000
vn -0.4870 -0.8734 -0.0000
vn 0.3778 -0.9259 -0.0000
vt 0.000000 0.500000
vt 1.000000 0.500000
vt 0.000000 1.000000
vt 1.000000 1.000000
vt 0.875000 0.500000
vt 0.875000 1.000000
vt 0.750000 0.500000
vt 0.750000 1.000000
vt 0.625000 0.500000
vt 0.625000 1.000000
vt 0.500000 0.500000
vt 0.500000 1.000000
vt 0.375000 0.500000
vt 0.375000 1.000000
vt 0.250000 0.500000
vt 0.250000 1.000000
vt 0.125000 0.500000
vt 0.125000 1.000000
vt 1.000000 1.000000
vt 0.000000 1.000000
vt 0.875000 1.000000
vt 0.750000 1.000000
vt 0.625000 1.000000
vt 0.500000 1.000000
vt 0.375000 1.000000
vt 0.250000 1.000000
vt 0.125000 1.000000
vt 1.000000 1.000000
vt 0.000000 1.000000
vt 0.875000 1.000000
vt 0.750000 1.000000
vt 0.625000 1.000000
vt 0.500000 1.000000
vt 0.375000 1.000000
vt 0.250000 1.000000
vt 0.125000 1.000000
vt 1.000000 1.000000
vt 0.000000 1.000000
vt 0.875000 1.000000
vt 0.750000 1.000000
vt 0.625000 1.000000
vt 0.500000 1.000000
vt 0.375000 1.000000
vt 0.250000 1.000000
vt 0.125000 1.000000
vt 0.000000 1.000000
vt 1.000000 1.000000
vt 0.875000 1.000000
vt 0.750000 1.000000
vt 0.625000 1.000000
vt 0.500000 1.000000
vt 0.375000 1.000000
vt 0.250000 1.000000
vt 0.125000 1.000000
vt 1.000000 1.000000
vt 0.000000 1.000000
vt 0.875000 1.000000
vt 0.750000 1.000000
vt 0.625000 1.000000
vt 0.500000 1.000000
vt 0.375000 1.000000
vt 0.250000 1.000000
vt 0.125000 1.000000
vt 1.000000 1.000000
vt 0.000000 1.000000
vt 0.875000 1.000000
vt 0.750000 1.000000
vt 0.625000 1.000000
vt 0.500000 1.000000
vt 0.375000 1.000000
vt 0.250000 1.000000
vt 0.125000 1.000000
vt 0.000000 0.500000
vt 1.000000 0.500000
vt 0.875000 0.500000
vt 0.750000 0.500000
vt 0.625000 0.500000
vt 0.500000 0.500000
vt 0.375000 0.500000
vt 0.250000 0.500000
vt 0.125000 0.500000
vt 0.000000 0.500000
vt 1.000000 0.500000
vt 0.750000 0.490000
vt 0.919706 0.419706
vt 0.875000 0.500000
vt 0.000000 0.000000
vt 0.990000 0.250000
vt 0.750000 0.500000
vt 0.000000 0.000000
vt 0.919706 0.080294
vt 0.625000 0.500000
vt 0.000000 0.000000
vt 0.500000 0.500000
vt 0.750000 0.010000
vt 0.375000 0.500000
vt 0.000000 0.000000
vt 0.580294 0.080294
vt 0.510000 0.250000
vt 0.250000 0.500000
vt 0.000000 0.000000
vt 0.580294 0.419706
vt 0.125000 0.500000
vt 0.000000 0.000000
vt 0.540582 0.165289
vt 0.375000 0.000000
vt 0.375000 1.000000
vt 0.125000 0.750000
vt 0.625000 0.000000
vt 0.625000 1.000000
vt 0.875000 0.750000
vt 0.375000 0.250000
vt 0.125000 0.500000
vt 0.625000 0.250000
vt 0.875000 0.500000
vt 0.375000 0.750000
vt 0.625000 0.750000
vt 0.375000 0.500000
vt 0.625000 0.500000
vt 0.375000 0.000000
vt 0.375000 1.000000
vt 0.125000 0.750000
vt 0.625000 0.000000
vt 0.625000 1.000000
vt 0.875000 0.750000
vt 0.375000 0.250000
vt 0.125000 0.500000
vt 0.625000 0.250000
vt 0.875000 0.500000
vt 0.375000 0.750000
vt 0.625000 0.750000
vt 0.375000 0.500000
vt 0.625000 0.500000
vt 0.375000 0.000000
vt 0.375000 1.000000
vt 0.125000 0.750000
vt 0.625000 0.000000
vt 0.625000 1.000000
vt 0.875000 0.750000
vt 0.375000 0.250000
vt 0.125000 0.500000
vt 0.625000 0.250000
vt 0.875000 0.500000
vt 0.375000 0.750000
vt 0.625000 0.750000
vt 0.375000 0.500000
vt 0.625000 0.500000
s 0
f 1/2/1 2/4/1 4/6/1 3/5/1
f 3/5/2 4/6/2 6/8/2 5/7/2
f 5/7/3 6/8/3 8/10/3 7/9/3
f 7/9/4 8/10/4 10/12/4 9/11/4
f 9/11/5 10/12/5 12/14/5 11/13/5
f 11/13/6 12/14/6 14/16/6 13/15/6
f 14/16/7 12/14/7 22/25/7 23/26/7
f 13/15/8 14/16/8 16/18/8 15/17/8
f 15/17/9 16/18/9 2/3/9 1/1/9
f 3/5/10 5/7/10 67/76/10 66/75/10
f 22/25/11 21/24/11 29/33/11 30/34/11
f 10/12/12 8/10/12 20/23/12 21/24/12
f 16/18/13 14/16/13 23/26/13 24/27/13
f 6/8/14 4/6/14 18/21/14 19/22/14
f 12/14/15 10/12/15 21/24/15 22/25/15
f 2/3/16 16/18/16 24/27/16 17/20/16
f 4/6/17 2/4/17 17/19/17 18/21/17
f 8/10/18 6/8/18 19/22/18 20/23/18
f 32/36/19 31/35/19 39/44/19 40/45/19
f 20/23/20 19/22/20 27/31/20 28/32/20
f 18/21/21 17/19/21 25/28/21 26/30/21
f 17/20/22 24/27/22 32/36/22 25/29/22
f 23/26/23 22/25/23 30/34/23 31/35/23
f 21/24/24 20/23/24 28/32/24 29/33/24
f 19/22/25 18/21/25 26/30/25 27/31/25
f 24/27/26 23/26/26 31/35/26 32/36/26
f 37/42/27 36/41/27 44/50/27 45/51/27
f 30/34/28 29/33/28 37/42/28 38/43/28
f 28/32/29 27/31/29 35/40/29 36/41/29
f 26/30/30 25/28/30 33/37/30 34/39/30
f 25/29/31 32/36/31 40/45/31 33/38/31
f 31/35/32 30/34/32 38/43/32 39/44/32
f 29/33/33 28/32/33 36/41/33 37/42/33
f 27/31/34 26/30/34 34/39/34 35/40/34
f 41/46/35 48/54/35 56/63/35 49/56/35
f 35/40/36 34/39/36 42/48/36 43/49/36
f 40/45/37 39/44/37 47/53/37 48/54/37
f 38/43/38 37/42/38 45/51/38 46/52/38
f 36/41/39 35/40/39 43/49/39 44/50/39
f 34/39/40 33/37/40 41/47/40 42/48/40
f 33/38/41 40/45/41 48/54/41 41/46/41
f 39/44/42 38/43/42 46/52/42 47/53/42
f 54/61/43 53/60/43 61/69/43 62/70/43
f 47/53/44 46/52/44 54/61/44 55/62/44
f 45/51/45 44/50/45 52/59/45 53/60/45
f 43/49/46 42/48/46 50/57/46 51/58/46
f 48/54/47 47/53/47 55/62/47 56/63/47
f 46/52/48 45/51/48 53/60/48 54/61/48
f 44/50/49 43/49/49 51/58/49 52/59/49
f 42/48/50 41/47/50 49/55/50 50/57/50
f 73/84/51 74/85/51 75/88/51 76/91/51 77/95/51 78/98/51 79/99/51 80/102/51
f 52/59/52 51/58/52 59/67/52 60/68/52
f 50/57/53 49/55/53 57/64/53 58/66/53
f 49/56/54 56/63/54 64/72/54 57/65/54
f 55/62/55 54/61/55 62/70/55 63/71/55
f 53/60/56 52/59/56 60/68/56 61/69/56
f 51/58/57 50/57/57 58/66/57 59/67/57
f 56/63/58 55/62/58 63/71/58 64/72/58
f 72/81/59 65/73/59 73/82/59 80/103/59
f 9/11/60 11/13/60 70/79/60 69/78/60
f 15/17/61 1/1/61 65/73/61 72/81/61
f 1/2/62 3/5/62 66/75/62 65/74/62
f 5/7/63 7/9/63 68/77/63 67/76/63
f 11/13/64 13/15/64 71/80/64 70/79/64
f 7/9/65 9/11/65 69/78/65 68/77/65
f 13/15/66 15/17/66 72/81/66 71/80/66
f 58/66/67 57/65/67 64/72/67 63/71/67 62/70/67 61/69/67 60/68/67 59/67/67
f 70/79/68 71/80/68 79/100/68 78/96/68
f 68/77/69 69/78/69 77/94/69 76/92/69
f 66/75/70 67/76/70 75/89/70 74/86/70
f 71/80/71 72/81/71 80/103/71 79/100/71
f 69/78/72 70/79/72 78/96/72 77/94/72
f 67/76/73 68/77/73 76/92/73 75/89/73
f 65/74/74 66/75/74 74/86/74 73/83/74
f 74/87/75 75/90/75 76/93/75
f 79/101/76 80/104/76 78/97/76
f 74/87/77 76/93/77 81/105/77
f 76/93/78 77/95/78 81/105/78
f 77/95/79 78/98/79 81/105/79
f 78/98/80 80/104/80 81/105/80
f 80/104/81 73/84/81 81/105/81
f 73/84/82 74/87/82 81/105/82
f 82/106/67 83/109/67 85/114/67 84/112/67
f 84/112/83 85/114/83 89/119/83 88/118/83
f 88/118/84 89/119/84 87/117/84 86/116/84
f 86/116/85 87/117/85 83/110/85 82/107/85
f 84/113/86 88/118/86 86/116/86 82/108/86
f 89/119/87 85/115/87 83/111/87 87/117/87
f 90/120/84 91/123/84 93/128/84 92/126/84
f 92/126/85 93/128/85 97/133/85 96/132/85
f 96/132/67 97/133/67 95/131/67 94/130/67
f 94/130/83 95/131/83 91/124/83 90/121/83
f 92/127/86 96/132/86 94/130/86 90/122/86
f 97/133/88 93/129/88 91/125/88 95/131/88
f 98/134/84 99/137/84 101/142/84 100/140/84
f 100/140/85 101/142/85 105/147/85 104/146/85
f 104/146/67 105/147/67 103/145/67 102/144/67
f 102/144/83 103/145/83 99/138/83 98/135/83
f 100/141/86 104/146/86 102/144/86 98/136/86
f 105/147/88 101/143/88 99/139/88 103/145/88
