# Blender 3.4.1
# www.blender.org
mtllib Leaf.mtl
o Plan
v -0.633622 1.608629 -0.000000
v 0.633622 1.608629 -0.000000
v -0.561399 9.408821 0.000000
v 0.561399 9.408821 0.000000
v 0.000000 -0.021183 -0.000000
v 0.000000 17.155050 0.000000
v -0.780989 4.176926 0.000000
v 0.780989 4.176926 0.000000
v 0.000000 4.176926 0.000000
v 0.698060 6.855597 0.000000
v 0.000000 11.115531 0.000000
v -0.698060 6.855597 0.000000
vn -0.0000 -0.0000 1.0000
vt 0.000000 0.000000
vt 1.000000 0.000000
vt 0.000000 1.000000
vt 1.000000 1.000000
vt 0.500000 -0.320746
vt 0.500000 1.320746
vt -0.195574 0.500000
vt 1.195574 0.500000
vt 0.500000 0.500000
vt 1.092990 0.762264
vt 0.500000 0.930505
vt -0.092990 0.762264
s 0
f 11/11/1 10/10/1 4/4/1 6/6/1
f 12/12/1 11/11/1 6/6/1 3/3/1
f 1/1/1 5/5/1 9/9/1 7/7/1
f 5/5/1 2/2/1 8/8/1 9/9/1
f 7/7/1 9/9/1 11/11/1 12/12/1
f 9/9/1 8/8/1 10/10/1 11/11/1
