# Blender 3.4.1
# www.blender.org
mtllib Rock2.mtl
o Cube
v -0.408796 -0.404279 0.408797
v -0.386654 0.391172 0.386654
v -0.363664 -0.359145 -0.363663
v -0.504241 0.508760 -0.504241
v 0.373988 -0.369469 0.373987
v 0.516201 0.520719 0.516201
v 0.471390 -0.466872 -0.471391
v 0.337981 0.342500 -0.337981
v -0.411175 -0.406655 -0.216182
v -0.425707 -0.421189 0.000000
v -0.452144 -0.447626 0.236562
v -0.487802 -0.249782 0.487802
v -0.534618 0.004519 0.534617
v -0.478775 0.254329 0.478775
v -0.418655 0.423173 0.219903
v -0.579276 0.583795 0.000000
v -0.611937 0.616456 -0.316053
v -0.575677 0.302534 -0.575677
v -0.555856 0.004519 -0.555856
v -0.378243 -0.195281 -0.378242
v 0.246170 -0.466938 -0.471456
v 0.000001 -0.392742 -0.397260
v -0.248175 -0.470970 -0.475489
v -0.259696 0.503167 -0.498648
v 0.000000 0.430932 -0.426414
v 0.233103 0.449708 -0.445189
v 0.427034 0.228590 -0.427034
v 0.515481 0.004519 -0.515480
v 0.528661 -0.270108 -0.528661
v 0.411059 -0.406540 0.216124
v 0.478149 -0.473631 0.000000
v 0.474117 -0.469599 -0.247493
v 0.473452 0.477971 -0.247162
v 0.636111 0.640630 0.000000
v 0.610283 0.614802 0.315230
v 0.542418 0.285989 0.542418
v 0.527090 0.004519 0.527091
v 0.413661 -0.212900 0.413661
v -0.256272 -0.487246 0.491764
v -0.000000 -0.547581 0.552100
v 0.251676 -0.478007 0.482525
v 0.313143 0.610605 0.606086
v 0.000000 0.532344 0.527826
v -0.242782 0.469164 0.464645
v -0.493633 -0.220188 0.224707
v -0.517593 0.004518 0.236277
v -0.459080 0.215800 0.211281
v -0.681629 -0.291891 -0.000000
v -0.745387 0.004518 -0.000000
v -0.707335 0.310351 -0.000000
v -0.551562 -0.242697 -0.247216
v -0.795515 0.004519 -0.338158
v -0.780807 0.340810 -0.336291
v -0.222621 -0.218102 -0.488265
v -0.239592 0.004519 -0.526637
v -0.247654 0.252173 -0.552692
v 0.000000 -0.262735 -0.602095
v 0.000000 0.004519 -0.705616
v 0.000000 0.264836 -0.583172
v 0.317138 -0.312619 -0.731513
v 0.342339 0.004519 -0.806923
v 0.290359 0.294878 -0.662596
v 0.508408 -0.225929 -0.230448
v 0.518973 0.004519 -0.236783
v 0.556335 0.253589 -0.249070
v 0.659775 -0.283880 0.000000
v 0.755998 0.004519 0.000000
v 0.796938 0.343198 -0.000000
v 0.597747 -0.260643 0.265161
v 0.651090 0.004519 0.285214
v 0.703559 0.310794 0.306276
v 0.242306 -0.237788 0.538927
v 0.284382 0.004519 0.648820
v 0.289185 0.293704 0.659575
v -0.000000 -0.273263 0.630814
v -0.000000 0.004519 0.638523
v -0.000000 0.271358 0.600963
v -0.294274 -0.289755 0.672671
v -0.318193 0.004519 0.741052
v -0.289607 0.294125 0.660659
v -0.278556 -0.627701 -0.278556
v -0.000000 -0.613659 -0.273149
v 0.251028 -0.556853 -0.251027
v -0.285758 -0.648055 0.000000
v 0.000000 -0.714328 0.000000
v 0.277101 -0.624437 0.000000
v -0.257052 -0.572360 0.257053
v 0.000000 -0.645082 0.284669
v 0.268576 -0.602015 0.268576
v 0.262252 0.594778 -0.262252
v -0.000000 0.627889 -0.275053
v -0.293727 0.675783 -0.293727
v 0.326064 0.767044 0.000000
v -0.000000 0.628099 0.000000
v -0.291621 0.673086 0.000000
v 0.328935 0.766393 0.328935
v -0.000000 0.657320 0.285842
v -0.264454 0.600445 0.264454
vn -0.2660 0.0314 0.9635
vn -0.2833 0.4525 0.8456
vn -0.8569 0.4103 0.3122
vn -0.9224 0.0340 0.3848
vn 0.0234 0.9495 -0.3130
vn 0.1116 0.5693 -0.8145
vn -0.2421 0.5582 -0.7936
vn -0.5629 0.7865 -0.2541
vn -0.2745 -0.1884 -0.9429
vn -0.0325 0.1971 -0.9798
vn -0.1930 0.4619 -0.8657
vn -0.3935 0.0196 -0.9191
vn -0.1591 0.9701 0.1833
vn -0.6260 0.6733 0.3934
vn -0.3747 -0.3329 -0.8653
vn -0.3323 -0.4913 -0.8051
vn -0.7262 -0.2763 -0.6295
vn -0.4721 -0.4545 -0.7553
vn 0.7390 0.1910 -0.6461
vn 0.9084 -0.0323 -0.4168
vn 0.9311 0.1319 -0.3400
vn 0.8011 0.4252 -0.4211
vn 0.2230 -0.9101 -0.3494
vn 0.0872 -0.8605 -0.5019
vn -0.0680 -0.6856 -0.7248
vn -0.0072 -0.8468 -0.5319
vn -0.3486 -0.4800 -0.8050
vn 0.3216 0.1348 -0.9372
vn 0.1636 -0.5096 -0.8447
vn 0.5235 0.4794 -0.7044
vn 0.6278 0.5179 -0.5811
vn 0.3159 0.6405 -0.7000
vn 0.9466 -0.1963 -0.2557
vn 0.8952 -0.2720 -0.3530
vn 0.1886 0.7581 -0.6242
vn 0.2857 0.7039 -0.6504
vn 0.9620 0.1437 -0.2321
vn 0.9596 -0.1925 -0.2051
vn -0.7609 -0.6160 0.2038
vn -0.7373 -0.5890 0.3308
vn -0.8681 -0.3363 0.3652
vn -0.9017 -0.3080 0.3035
vn -0.9322 0.0335 0.3604
vn -0.3714 0.8458 0.3829
vn -0.7267 0.4957 0.4756
vn -0.7653 0.5740 0.2913
vn -0.3987 0.7046 0.5870
vn -0.8784 0.2596 0.4011
vn -0.3529 -0.3525 -0.8668
vn -0.4620 -0.8512 0.2489
vn -0.7434 -0.6688 0.0040
vn -0.5180 -0.8553 0.0099
vn -0.8459 0.2442 0.4742
vn -0.9258 0.2706 -0.2641
vn -0.3729 0.1604 -0.9139
vn -0.8839 -0.3009 -0.3580
vn -0.6334 -0.6442 -0.4287
vn 0.0871 0.9663 -0.2423
vn 0.6886 0.6710 -0.2748
vn 0.5330 -0.5289 0.6604
vn 0.5096 -0.8066 0.2994
vn 0.6805 -0.6395 0.3577
vn 0.6986 -0.4512 0.5553
vn -0.7536 -0.5558 -0.3509
vn -0.8178 -0.5524 0.1616
vn 0.0776 0.8905 -0.4483
vn 0.0513 0.6555 -0.7534
vn 0.7086 -0.6834 -0.1758
vn 0.6252 -0.7154 -0.3120
vn 0.1203 0.0933 0.9883
vn 0.2486 -0.1938 0.9490
vn 0.6426 -0.2747 0.7153
vn 0.6698 0.0313 0.7419
vn 0.4453 -0.8952 -0.0154
vn 0.7070 -0.7072 0.0117
vn 0.8935 -0.4370 -0.1032
vn 0.8697 -0.2386 0.4321
vn 0.7411 -0.5021 0.4457
vn 0.0850 0.5871 0.8051
vn 0.6175 0.3864 0.6851
vn 0.9149 0.0779 0.3960
vn 0.4164 -0.3079 0.8555
vn 0.6034 -0.4425 0.6634
vn 0.0639 0.9626 0.2633
vn 0.7130 0.6177 0.3317
vn -0.0384 0.2515 0.9671
vn 0.1376 -0.0275 0.9901
vn -0.0969 0.9933 -0.0627
vn -0.2614 0.9328 0.2480
vn -0.0115 -0.9528 0.3035
vn 0.0666 -0.7043 0.7068
vn -0.3852 -0.7355 0.5574
vn 0.1743 -0.2713 0.9466
vn -0.3031 -0.3853 0.8716
vn 0.0414 -0.9989 -0.0226
vn -0.2479 0.6355 0.7312
vn -0.4400 -0.7856 -0.4350
vn -0.9140 -0.1194 0.3878
vt 0.375000 1.000000
vt 0.125000 0.750000
vt 0.375000 0.000000
vt 0.625000 1.000000
vt 0.875000 0.750000
vt 0.625000 0.000000
vt 0.125000 0.500000
vt 0.375000 0.250000
vt 0.625000 0.250000
vt 0.875000 0.500000
vt 0.375000 0.750000
vt 0.625000 0.750000
vt 0.375000 0.500000
vt 0.625000 0.500000
vt 0.375000 0.187500
vt 0.125000 0.562500
vt 0.375000 0.125000
vt 0.125000 0.625000
vt 0.375000 0.062500
vt 0.125000 0.687500
vt 0.437500 0.000000
vt 0.437500 1.000000
vt 0.500000 0.000000
vt 0.500000 1.000000
vt 0.562500 0.000000
vt 0.562500 1.000000
vt 0.625000 0.062500
vt 0.875000 0.687500
vt 0.625000 0.125000
vt 0.875000 0.625000
vt 0.875000 0.562500
vt 0.625000 0.187500
vt 0.562500 0.250000
vt 0.500000 0.250000
vt 0.437500 0.250000
vt 0.375000 0.437500
vt 0.312500 0.500000
vt 0.375000 0.375000
vt 0.250000 0.500000
vt 0.375000 0.312500
vt 0.187500 0.500000
vt 0.812500 0.500000
vt 0.625000 0.312500
vt 0.625000 0.375000
vt 0.750000 0.500000
vt 0.687500 0.500000
vt 0.625000 0.437500
vt 0.562500 0.500000
vt 0.500000 0.500000
vt 0.437500 0.500000
vt 0.375000 0.687500
vt 0.375000 0.625000
vt 0.375000 0.562500
vt 0.625000 0.562500
vt 0.625000 0.625000
vt 0.625000 0.687500
vt 0.562500 0.750000
vt 0.500000 0.750000
vt 0.437500 0.750000
vt 0.375000 0.937500
vt 0.187500 0.750000
vt 0.375000 0.875000
vt 0.250000 0.750000
vt 0.375000 0.812500
vt 0.312500 0.750000
vt 0.687500 0.750000
vt 0.625000 0.812500
vt 0.750000 0.750000
vt 0.625000 0.875000
vt 0.812500 0.750000
vt 0.625000 0.937500
vt 0.437500 0.062500
vt 0.500000 0.062500
vt 0.562500 0.062500
vt 0.437500 0.125000
vt 0.500000 0.125000
vt 0.562500 0.125000
vt 0.437500 0.187500
vt 0.500000 0.187500
vt 0.562500 0.187500
vt 0.437500 0.312500
vt 0.500000 0.312500
vt 0.562500 0.312500
vt 0.437500 0.375000
vt 0.500000 0.375000
vt 0.562500 0.375000
vt 0.437500 0.437500
vt 0.500000 0.437500
vt 0.562500 0.437500
vt 0.437500 0.562500
vt 0.500000 0.562500
vt 0.562500 0.562500
vt 0.437500 0.625000
vt 0.500000 0.625000
vt 0.562500 0.625000
vt 0.437500 0.687500
vt 0.500000 0.687500
vt 0.562500 0.687500
vt 0.437500 0.812500
vt 0.500000 0.812500
vt 0.562500 0.812500
vt 0.437500 0.875000
vt 0.500000 0.875000
vt 0.562500 0.875000
vt 0.437500 0.937500
vt 0.500000 0.937500
vt 0.562500 0.937500
vt 0.187500 0.562500
vt 0.250000 0.562500
vt 0.312500 0.562500
vt 0.187500 0.625000
vt 0.250000 0.625000
vt 0.312500 0.625000
vt 0.187500 0.687500
vt 0.250000 0.687500
vt 0.312500 0.687500
vt 0.687500 0.562500
vt 0.750000 0.562500
vt 0.812500 0.562500
vt 0.687500 0.625000
vt 0.750000 0.625000
vt 0.812500 0.625000
vt 0.687500 0.687500
vt 0.750000 0.687500
vt 0.812500 0.687500
s 1
f 79/106/1 80/107/2 14/26/3 13/24/4
f 92/119/5 24/42/6 4/9/7 17/31/8
f 55/82/9 56/83/10 59/86/11 58/85/12
f 95/122/13 92/119/5 17/31/8 16/30/14
f 54/81/15 23/40/16 3/8/17 20/35/18
f 65/92/19 64/91/20 28/49/21 27/48/22
f 83/110/23 82/109/24 22/39/25 21/37/26
f 54/81/15 55/82/9 58/85/12 57/84/27
f 57/84/27 58/85/12 61/88/28 60/87/29
f 33/54/30 65/92/19 27/48/22 8/14/31
f 58/85/12 59/86/11 62/89/32 61/88/28
f 64/91/20 63/90/33 29/50/34 28/49/21
f 90/117/35 33/54/30 8/14/31 26/46/36
f 64/91/20 65/92/19 68/95/37 67/94/38
f 11/19/39 1/1/40 12/21/41 45/72/42
f 12/21/41 13/23/4 46/73/43 45/72/42
f 98/125/44 15/28/45 2/4/46 44/70/47
f 13/23/4 14/25/3 47/74/48 46/73/43
f 55/82/9 54/81/15 20/35/18 19/34/49
f 87/114/50 11/20/39 10/18/51 84/111/52
f 14/25/3 2/5/46 15/27/45 47/74/48
f 15/27/45 16/29/14 50/77/53 47/74/48
f 16/29/14 17/32/8 53/80/54 50/77/53
f 17/32/8 4/9/7 18/33/55 53/80/54
f 18/33/55 19/34/49 52/79/56 53/80/54
f 19/34/49 20/35/18 51/78/57 52/79/56
f 93/120/58 34/55/59 33/54/30 90/117/35
f 41/65/60 89/116/61 30/51/62 5/11/63
f 20/35/18 3/7/17 9/15/64 51/78/57
f 9/15/64 10/17/51 48/75/65 51/78/57
f 10/17/51 11/19/39 45/72/42 48/75/65
f 91/118/66 90/117/35 26/46/36 25/45/67
f 63/90/33 32/53/68 7/13/69 29/50/34
f 74/101/70 73/100/71 37/58/72 36/57/73
f 89/116/61 86/113/74 31/52/75 30/51/62
f 63/90/33 64/91/20 67/94/38 66/93/76
f 66/93/76 67/94/38 70/97/77 69/96/78
f 42/67/79 74/101/70 36/57/73 6/12/80
f 67/94/38 68/95/37 71/98/81 70/97/77
f 73/100/71 72/99/82 38/59/83 37/58/72
f 96/123/84 42/66/79 6/12/80 35/56/85
f 73/100/71 74/101/70 77/104/86 76/103/87
f 24/43/6 25/44/67 59/86/11 56/83/10
f 25/44/67 26/47/36 62/89/32 59/86/11
f 26/47/36 8/14/31 27/48/22 62/89/32
f 94/121/88 95/122/13 98/125/44 97/124/89
f 27/48/22 28/49/21 61/88/28 62/89/32
f 28/49/21 29/50/34 60/87/29 61/88/28
f 29/50/34 7/13/69 21/36/26 60/87/29
f 21/36/26 22/38/25 57/84/27 60/87/29
f 96/123/84 35/56/85 34/55/59 93/120/58
f 22/38/25 23/40/16 54/81/15 57/84/27
f 72/99/82 41/64/60 5/11/63 38/59/83
f 87/114/50 88/115/90 40/63/91 39/61/92
f 72/99/82 73/100/71 76/103/87 75/102/93
f 75/102/93 76/103/87 79/106/1 78/105/94
f 76/103/87 77/104/86 80/107/2 79/106/1
f 82/109/24 83/110/23 86/113/74 85/112/95
f 33/54/30 34/55/59 68/95/37 65/92/19
f 34/55/59 35/56/85 71/98/81 68/95/37
f 56/83/10 55/82/9 19/34/49 18/33/55
f 35/56/85 6/12/80 36/57/73 71/98/81
f 36/57/73 37/58/72 70/97/77 71/98/81
f 37/58/72 38/59/83 69/96/78 70/97/77
f 38/59/83 5/11/63 30/51/62 69/96/78
f 30/51/62 31/52/75 66/93/76 69/96/78
f 97/124/89 98/125/44 44/70/47 43/68/96
f 31/52/75 32/53/68 63/90/33 66/93/76
f 93/120/58 94/121/88 97/124/89 96/123/84
f 96/123/84 97/124/89 43/68/96 42/66/79
f 84/111/52 10/18/51 9/16/64 81/108/97
f 84/111/52 85/112/95 88/115/90 87/114/50
f 42/67/79 43/69/96 77/104/86 74/101/70
f 43/69/96 44/71/47 80/107/2 77/104/86
f 39/60/92 40/62/91 75/102/93 78/105/94
f 80/107/2 44/71/47 2/6/46 14/26/3
f 40/62/91 41/64/60 72/99/82 75/102/93
f 88/115/90 89/116/61 41/65/60 40/63/91
f 86/113/74 83/110/23 32/53/68 31/52/75
f 82/109/24 81/108/97 23/41/16 22/39/25
f 81/108/97 82/109/24 85/112/95 84/111/52
f 78/105/94 79/106/1 13/24/4 12/22/41
f 92/119/5 91/118/66 25/45/67 24/42/6
f 46/73/43 47/74/48 50/77/53 49/76/98
f 48/75/65 49/76/98 52/79/56 51/78/57
f 98/125/44 95/122/13 16/30/14 15/28/45
f 78/105/94 12/22/41 1/2/40 39/60/92
f 32/53/68 83/110/23 21/37/26 7/13/69
f 24/43/6 56/83/10 18/33/55 4/10/7
f 49/76/98 50/77/53 53/80/54 52/79/56
f 87/114/50 39/61/92 1/3/40 11/20/39
f 90/117/35 91/118/66 94/121/88 93/120/58
f 45/72/42 46/73/43 49/76/98 48/75/65
f 81/108/97 9/16/64 3/8/17 23/41/16
f 91/118/66 92/119/5 95/122/13 94/121/88
f 85/112/95 86/113/74 89/116/61 88/115/90
